<?xml version="1.0" encoding="UTF-8"?>
<svg version="1.1" viewBox="0 0 158.5 145.92" xmlns="http://www.w3.org/2000/svg" xmlns:cc="http://creativecommons.org/ns#" xmlns:dc="http://purl.org/dc/elements/1.1/" xmlns:rdf="http://www.w3.org/1999/02/22-rdf-syntax-ns#">
 <metadata>
  <rdf:RDF>
   <cc:Work rdf:about="">
    <dc:format>image/svg+xml</dc:format>
    <dc:type rdf:resource="http://purl.org/dc/dcmitype/StillImage"/>
    <dc:title/>
   </cc:Work>
  </rdf:RDF>
 </metadata>
 <g transform="translate(-44.329 -13.449)">
  <g stroke-width=".26458" aria-label="Frank's Movie Log">
   <path d="m65.388 21.969q-3.237 0.18604-6.3996 0.29766-3.1254 0.11162-6.3252 0.40928l0.29766 3.1998 6.1764 0.40928 1.0418 3.7207q-1.6743 0.37207-3.3858 0.59531-1.6743 0.18604-3.3486 0.5209 0.37207 2.7905 0.5209 5.5811 0.14883 2.7533 0.14883 5.5438l-9.7854 0.33486q0.18604-4.3532 0.22324-8.632 0.03721-4.316 0.03721-8.6692v-10.79q2.158-0.03721 4.2416-0.07441 2.1208-0.07441 4.2788-0.07441 2.9021 0 5.8043 0.14883 2.9021 0.11162 5.8415 0.26045 0.22324 1.7859 0.40928 3.6091 0.22324 1.7859 0.22324 3.6091z" style="font-variant-caps:normal;font-variant-east-asian:normal;font-variant-ligatures:normal;font-variant-numeric:normal"/>
   <path d="m90.168 25.876v0.85576l-7.181 0.33486q0.11162-0.48369 0.11162-1.1162 0-0.93018-0.26045-1.1906-0.26045-0.29766-1.1534-0.29766-1.265 0-2.7905 0.44648-1.5255 0.44648-2.6789 0.85576-0.18604 1.6371-0.29766 3.2742t-0.11162 3.2742q0 1.8231 0 3.6463 0.03721 1.7859 0.07441 3.6091l-6.3996 0.40928q-0.18604-2.3812-0.37207-4.7253-0.18604-2.3812-0.33486-4.7625-0.18604-3.1626-0.48369-6.288-0.29766-3.1626-0.59531-6.3624 2.1208 0.14883 4.2044 0.44648 2.1208 0.26045 4.2416 0.66973l-0.18604 3.1254q1.1162-0.89297 2.1208-1.5255 1.0418-0.66973 2.0836-1.1162 1.079-0.44648 2.2696-0.63252 1.1906-0.22324 2.6417-0.22324 0.96738 0 2.0092 0.22324 1.0418 0.18604 1.7859 0.93018 0.37207 0.40928 0.63252 1.2278 0.26045 0.81855 0.40928 1.7487 0.14883 0.89297 0.18604 1.7859 0.07441 0.85576 0.07441 1.3767z" style="font-variant-caps:normal;font-variant-east-asian:normal;font-variant-ligatures:normal;font-variant-numeric:normal"/>
   <path d="m118.48 24.797q0 3.1254-0.22325 6.2136-0.22324 3.0882-0.44648 6.1764-4.1672 0.37207-8.2972 0.63252t-8.2972 0.26045q-0.37208 0-1.3767 0-1.0046-0.03721-2.1208-0.07441-1.1162-0.07441-2.1208-0.14883-1.0046-0.11162-1.3395-0.29766-1.2278-0.66973-1.7115-1.6743-0.48369-1.0418-0.48369-2.344 0-0.44648 0.03721-1.1906 0.03721-0.74414 0.14883-1.5627 0.11162-0.81856 0.29766-1.5255 0.18604-0.70693 0.44648-1.0418 0.33486-0.44648 1.5255-0.74414 1.1906-0.33486 2.8277-0.5209 1.6743-0.18604 3.5719-0.29766 1.9348-0.11162 3.6835-0.14883 1.7487-0.07441 3.1254-0.07441t1.972 0q0.11162-0.81856 0.11162-1.5999 0-0.07441 0-0.37207 0-0.33486-0.0372-0.40928-0.11162-0.22324-0.70693-0.37207t-1.4883-0.22324q-0.85576-0.07441-1.8976-0.11162-1.0046-0.07441-1.972-0.07441-0.96739 0-1.7115 0t-1.079 0q-2.344 0-4.6881 0.11162-2.344 0.07441-4.6881 0.14883 0.14883-1.4139 0.22324-2.8649 0.11162-1.4511 0.03721-2.8649 2.7161-0.48369 5.4322-0.66973 2.7533-0.22324 5.5438-0.22324 1.0046 0 2.1952 0.03721 1.1906 0 2.3812 0.07441 1.1906 0.03721 2.344 0.14883 1.1906 0.11162 2.1952 0.29766 1.0418 0.18604 2.0464 0.66973 1.0418 0.48369 1.9348 1.1906 0.89297 0.70693 1.5627 1.6371 0.66973 0.89297 0.96738 1.9348 0.0372 0.11162 0.0372 0.37207 0.0372 0.26045 0.0372 0.59531 0 0.29766 0 0.5581 0 0.26045 0 0.37207zm-8.2972 8.7437v-4.7625q-1.079-0.03721-2.158-0.03721-1.079-0.03721-2.158-0.03721-0.22324 0-1.265 0.03721-1.0046 0-2.1952 0.07441-1.1534 0.07441-2.1208 0.18604-0.96738 0.11162-1.1162 0.33486-0.18604 0.29766-0.26045 0.63252-0.03721 0.29766-0.03721 0.63252 0 0.26045 0.03721 0.70693t0.11162 0.93018q0.11162 0.48369 0.22324 0.89297 0.11162 0.40928 0.29766 0.59531 0.14883 0.18604 0.48369 0.29766 0.37207 0.07441 0.78135 0.14883 0.40928 0.03721 0.81855 0.07441 0.40928 0 0.63252 0 0.89297 0 1.8976-0.07441 1.0418-0.07441 2.0836-0.14883 1.079-0.11162 2.0836-0.22324 1.0046-0.14883 1.8604-0.26045z" style="font-variant-caps:normal;font-variant-east-asian:normal;font-variant-ligatures:normal;font-variant-numeric:normal"/>
   <path d="m144.23 30.527q0 1.0046 0 2.0464 0 1.0046-0.0744 2.0092l-8.2972 0.5209q0.14882-1.9348 0.22324-3.8323 0.11162-1.8976 0.11162-3.8695 0-0.18604 0-0.63252 0-0.44648-0.0372-0.93018-0.0372-0.5209-0.0744-0.96738-0.0372-0.44648-0.0744-0.63252-0.18603-0.5209-0.40927-0.89297-0.18604-0.37207-0.48369-0.59531-0.26045-0.22324-0.66973-0.29766-0.40928-0.11162-1.0046-0.11162-0.44648 0-1.1534 0.07441-0.66972 0.07441-1.3767 0.22324-0.70693 0.14883-1.3394 0.37207t-0.89297 0.5209l-0.0744 10.976q-0.0744-0.14883-0.44649-0.14883-0.33486 0-0.48369 0-1.1162 0-2.3068 0.11162-1.1906 0.07442-2.3068 0.22324-0.48369-4.3904-0.85576-8.7437-0.37207-4.3532-0.85577-8.7437 0.74415-0.03721 1.4883-0.03721 0.74414-0.03721 1.4883-0.03721 0.96738 0 1.9348 0.07441 1.0046 0.03721 1.972 0.07441l0.26044 2.8649q1.0418-1.7115 2.8277-2.8649t3.8323-1.1534q1.0418 0 2.158 0.11162t2.1208 0.44648q1.0418 0.33486 1.9348 0.93018 0.93017 0.59531 1.5627 1.5255 0.29766 0.44648 0.48369 1.3395 0.22325 0.85576 0.37207 1.972 0.14883 1.079 0.22325 2.3068 0.11162 1.2278 0.14882 2.344 0.0372 1.1162 0.0372 2.0464 0.0372 0.89297 0.0372 1.3767z" style="font-variant-caps:normal;font-variant-east-asian:normal;font-variant-ligatures:normal;font-variant-numeric:normal"/>
   <path d="m173.36 21.076-9.5622 6.9205q0.11162 0.44648 0.44648 1.4511 0.33487 0.96738 0.74414 2.0464 0.40928 1.0418 0.85577 1.972 0.48369 0.89297 0.89297 1.1534 0.26044 0.18604 0.66972 0.29766t0.81856 0.18604q0.44648 0.07441 0.85576 0.11162 0.44648 0 0.74414 0 0.5209 0 1.079-0.03721 0.55811-0.03721 1.079-0.11162-0.0744 0.48369-0.11162 1.0046-0.0372 0.48369-0.0372 1.0046 0 0.89297 0.0372 1.7859t0.0372 1.7487q-0.26045 0.03721-0.93017 0.11162-0.63252 0.03721-1.4883 0.11162-0.81856 0.03721-1.7487 0.11162-0.93018 0.07441-1.7487 0.14883-0.78134 0.03721-1.3767 0.03721-0.5581 0-0.70693-0.07441-0.63252-0.29766-1.2278-0.63252t-1.0046-0.93018q-0.18604-0.26045-0.63252-1.4139-0.40928-1.1534-0.89297-2.5301-0.44648-1.3767-0.85576-2.5673-0.37207-1.1906-0.48369-1.5255l-3.5719 2.3068v6.474l-7.367 0.63252q0.22324-5.209 0.48369-10.344 0.26045-5.1718 0.26045-10.418 0-1.5999-0.0372-3.1626 0-1.5627-0.0372-3.1998 1.5255 0.29766 3.0138 0.37207 1.5255 0.07441 3.051 0.22324v13.915q2.9022-1.7859 5.6555-3.6463 2.7905-1.8604 5.395-4.0928 1.972 0.22324 3.8323 0.33486 1.8976 0.11162 3.8695 0.22324z" style="font-variant-caps:normal;font-variant-east-asian:normal;font-variant-ligatures:normal;font-variant-numeric:normal"/>
   <path d="m179.09 13.933q-0.0744 2.8277-0.26045 5.6183-0.18603 2.7533-0.26045 5.6183l-4.316 0.22324q-0.18604-3.0138-0.40928-5.9531-0.18603-2.9766-0.48369-5.9903z" style="font-variant-caps:normal;font-variant-east-asian:normal;font-variant-ligatures:normal;font-variant-numeric:normal"/>
   <path d="m202.83 15.756-0.22324 4.8369q-1.1534-0.07441-2.3068-0.11162-1.1534-0.03721-2.3068-0.03721-0.48369 0-1.3767 0.03721-0.89297 0-2.0092 0.03721-1.079 0.03721-2.2324 0.11162-1.1534 0.07441-2.1208 0.14883-0.96738 0.07441-1.6371 0.18604-0.66973 0.11162-0.81856 0.22324-0.48369 0.48369-0.48369 1.1162 0 0.40928 0.22324 0.66973 0.0744 0.11162 0.81856 0.18604 0.74414 0.07441 1.8231 0.14883 1.079 0.03721 2.344 0.07441 1.3022 0 2.4557 0.03721 1.1906 0 2.0836 0.03721 0.93018 0.03721 1.3022 0.07441 1.4139 0.18604 2.2324 0.81855 0.85576 0.63252 1.3022 1.5999 0.44648 0.93018 0.5581 2.1208 0.14883 1.1906 0.14883 2.4185 0 0.59531-0.11162 1.4139-0.0744 0.81856-0.26045 1.6371-0.18604 0.81855-0.55811 1.5255-0.33486 0.70693-0.81855 1.1162-0.55811 0.44648-1.8232 0.74414-1.2278 0.29766-2.6789 0.48369-1.4139 0.18604-2.7533 0.26045-1.3395 0.07441-2.0464 0.07441-2.4557 0-4.9113-0.26045-2.4557-0.29766-4.8741-0.63252v-7.1065q2.344 0.48369 4.6881 0.5581 2.3812 0.07441 4.7625 0.26045 0.48369 0.03721 1.4511 0.07441 1.0046 0 2.0092-0.03721 1.0046-0.07441 1.8232-0.26045 0.81855-0.18604 1.0046-0.5209 0.0744-0.11162 0.0744-0.26045 0-0.14883 0-0.26045 0-0.29766-0.0744-0.74414-0.0372-0.48369-0.22325-0.74414-0.0372-0.03721-0.26045-0.03721-0.22324-0.03721-0.26044-0.03721-2.0836-0.11162-4.1672-0.11162-2.0836-0.03721-4.2044-0.22324-0.85576-0.07441-1.7487-0.14883-0.85576-0.11162-1.7115-0.29766-0.70693-0.14883-1.3022-0.33486-0.5581-0.18604-1.0046-0.48369-0.40927-0.29766-0.70693-0.74414-0.29766-0.48369-0.40928-1.265-0.0744-0.26045-0.0744-0.48369 0-0.26045 0-0.55811 0-0.66973 0.0744-1.5255t0.26045-1.7115q0.22324-0.85576 0.5209-1.5999 0.33486-0.78135 0.85576-1.265 0.33487-0.33486 1.1906-0.5581t1.972-0.37207q1.1162-0.18604 2.3812-0.29766 1.265-0.11162 2.4185-0.14883 1.1906-0.07441 2.1208-0.07441 0.96738-0.03721 1.4511-0.03721 2.0836 0 4.0928 0.07441 2.0464 0.07441 4.0556 0.18604z" style="font-variant-caps:normal;font-variant-east-asian:normal;font-variant-ligatures:normal;font-variant-numeric:normal"/>
   <path d="m84.119 83.99q-0.85912-0.04522-1.673-0.13565-0.67825-0.09043-1.3565-0.13565-0.63304-0.04522-0.94956-0.04522-1.7635 0-3.5269 0.04522-1.7635 0.09043-3.4817 0.2713 0.04522-1.8991 0.04522-3.7078 0.04522-1.8539 0.04522-3.753 0-3.3913-0.13565-6.7373-0.09043-3.346-0.18087-6.6921l-9.4956 21.478q-2.08-5.6521-4.4765-11.078-2.3513-5.4712-4.9286-10.897l0.72347 22.337q-0.49738 0-1.04-0.04522-0.49739 0-1.04 0-1.7182 0-3.3913 0.13565-1.6278 0.13565-3.3008 0.2713 0.22608-4.2052 0.45217-8.3651 0.22608-4.16 0.22608-8.3651 0-4.9286-0.09043-9.8121-0.04522-4.8834-0.09043-9.8121 3.2556 0 6.3304-0.18087 3.12-0.18087 6.3756-0.49738 1.0852 3.6174 2.2156 7.1895 1.1756 3.5269 2.4869 7.0538 1.4017-3.3461 3.1652-6.5564 1.8087-3.2104 3.6626-6.3756 3.0747-0.09043 6.0591-0.18087 3.0295-0.09043 6.1043-0.13565 0.13565 4.0695 0.31652 8.0486 0.22608 3.9791 0.40695 8.0486 0.13565 3.2104 0.22608 6.4208 0.13565 3.2104 0.22608 6.3756l0.09043 3.7982z" style="font-variant-caps:normal;font-variant-east-asian:normal;font-variant-ligatures:normal;font-variant-numeric:normal"/>
   <path d="m123.05 65.316q0 0.36174 0 0.72347 0 0.31652-0.0452 0.67825-0.0452 0.63304-0.22608 2.08-0.18087 1.4469-0.49739 3.0295-0.31652 1.5374-0.76869 2.8487-0.45216 1.3113-0.99477 1.673-0.2713 0.18087-1.8539 0.31652-1.5374 0.13565-3.7982 0.2713-2.2156 0.13565-4.8382 0.22608-2.6226 0.09043-5.0191 0.18087-2.3513 0.04522-4.16 0.09043-1.7635 0.04522-2.3513 0.04522-0.2713 0-0.94956 0-0.63304 0-1.3565 0-0.72347-0.04522-1.3565-0.09043-0.63304-0.04522-0.90434-0.13565-0.63304-0.22608-1.2661-0.72347-0.63304-0.5426-1.1756-1.1756-0.5426-0.67825-0.99477-1.3565-0.40695-0.72347-0.58782-1.3565-0.13565-0.49739-0.22608-1.4922-0.09043-1.04-0.13565-2.1252-0.04522-1.1304-0.09043-2.1704 0-1.04 0-1.5826 0-0.85912 0.04522-2.3513 0.04522-1.5374 0.2713-3.12 0.22608-1.5826 0.63304-2.9391 0.45217-1.4017 1.2661-1.9443 0.36174-0.22608 1.3565-0.40695 0.99477-0.18087 2.3513-0.31652t2.8939-0.18087q1.5374-0.09043 2.9843-0.09043 1.4922-0.04522 2.7582-0.04522 1.2661 0 2.0348 0.04522 0.67825 0.04522 1.9443 0.09043 1.2661 0 2.8034 0.04522 1.5826 0.04522 3.2556 0.18087 1.673 0.09043 3.12 0.2713 1.4469 0.18087 2.5322 0.49739 1.1304 0.2713 1.4922 0.67825 0.58782 0.63304 0.94955 1.8991 0.36174 1.2661 0.5426 2.713 0.22609 1.4017 0.27131 2.8034 0.0904 1.3565 0.0904 2.2156zm-9.586 0.94956q0-0.5426-0.0452-1.2661t-0.13565-1.4469q-0.0904-0.76869-0.2713-1.4469-0.18087-0.72347-0.45217-1.1756-0.36174-0.58782-1.4017-0.90434-1.04-0.31652-2.3061-0.45217-1.2208-0.18087-2.4417-0.22608-1.1756-0.04522-1.7635-0.04522-0.31652 0-1.1304 0.04522-0.8139 0-1.7182 0.04522-0.85912 0.04522-1.6278 0.18087-0.76869 0.09043-0.99477 0.22608-0.40695 0.2713-0.63304 0.85912-0.22608 0.5426-0.36174 1.2209-0.09043 0.67825-0.13565 1.3565 0 0.63304 0 1.04t0.04522 1.4922q0.09043 1.04 0.18087 2.2608 0.13565 1.1756 0.31652 2.1704 0.18087 0.99477 0.45217 1.2661 0.31652 0.36174 1.1756 0.58782 0.90433 0.22608 1.8991 0.40695 1.04 0.13565 1.9895 0.22608 0.94955 0.04522 1.3565 0.04522 0.72347 0 1.7182-0.04522t1.9895-0.22608q1.04-0.18087 1.9443-0.49739t1.4469-0.85912q0.31652-0.31652 0.49739-0.94956 0.18086-0.63304 0.2713-1.3565 0.0904-0.72347 0.0904-1.4017 0.0452-0.72347 0.0452-1.1304z" style="font-variant-caps:normal;font-variant-east-asian:normal;font-variant-ligatures:normal;font-variant-numeric:normal"/>
   <path d="m155.52 57.719q-1.673 3.12-3.3008 6.0591-1.6278 2.8939-3.346 5.7425-1.673 2.8034-3.4817 5.6069-1.8087 2.8034-3.8434 5.6973l-7.8677 0.31652-8.9529-23.648 10.038-0.2713q0.90434 4.2052 1.7182 8.4103 0.85912 4.16 1.7635 8.4103 1.7182-3.9791 3.3008-7.913 1.6278-3.9339 2.9391-8.0938 2.8034 0 5.5165-0.04522 2.713-0.04522 5.5165-0.2713z" style="font-variant-caps:normal;font-variant-east-asian:normal;font-variant-ligatures:normal;font-variant-numeric:normal"/>
   <path d="m164.79 52.971q0 0.90434-0.40695 1.7182-0.36174 0.76869-1.04 1.3565-0.63304 0.58782-1.4469 0.94955-0.81391 0.31652-1.6278 0.31652-0.90434 0-1.7182-0.40695-0.76869-0.40695-1.3565-1.04-0.58782-0.63304-0.90434-1.4469-0.31652-0.85912-0.31652-1.7182t0.31652-1.5826q0.36174-0.76869 0.90434-1.3113 0.58782-0.5426 1.3113-0.85912 0.76869-0.31652 1.6278-0.31652t1.673 0.36174q0.85913 0.31652 1.4922 0.94956 0.67826 0.58782 1.0852 1.4017 0.40695 0.76869 0.40695 1.6278zm1.8539 7.6869q-0.22608 2.3965-0.36173 4.7478t-0.2713 4.7026q-0.18087 2.7582-0.63304 5.4712-0.40695 2.713-0.94956 5.426l-6.9182 0.72347q0-1.4469 0-2.8487 0.0452-1.4017 0.0452-2.8487 0-3.7078-0.13565-7.4156-0.13566-3.7078-0.27131-7.4156 2.3965-0.09043 4.7026-0.2713 2.3513-0.18087 4.793-0.2713z" style="font-variant-caps:normal;font-variant-east-asian:normal;font-variant-ligatures:normal;font-variant-numeric:normal"/>
   <path d="m202.5 66.446q-5.9234 0.31652-11.802 0.5426-5.8782 0.18087-11.802 0.40695-0.0452 0.18087-0.0452 0.36174 0 0.18087 0 0.36174 0 1.5374 0.67825 2.3513 0.72347 0.8139 1.7635 1.1756 1.04 0.31652 2.3061 0.36174 1.2661 0.04522 2.3513 0.04522 3.0295 0 6.0591-0.18087 3.0295-0.22608 6.1043-0.45217l0.36174 7.1895q-2.9843 0.13565-5.9686 0.22608-2.9391 0.09043-5.9234 0.09043-0.63304 0-2.3513 0-1.673-0.04522-3.6174-0.13565-1.8991-0.13565-3.5721-0.31652-1.673-0.18087-2.2156-0.49739-1.4017-0.8139-2.2156-2.08-0.76868-1.2661-1.2208-2.7582-0.40695-1.4922-0.58782-3.0295-0.13565-1.5826-0.18087-3.0295-0.0452-0.22608-0.0452-0.45217 0.0452-0.2713 0.0452-0.49739 0-2.3965 0.49739-4.4313 0.5426-2.08 1.9443-4.0243 0.94956-1.3565 2.8034-2.2608t4.0243-1.4017q2.1704-0.5426 4.3408-0.72347 2.1704-0.22608 3.753-0.22608 1.4017 0 3.4365 0.2713 2.0348 0.22608 4.0243 0.8139 2.0348 0.58782 3.6626 1.5374 1.6278 0.90434 2.2156 2.2608 0.0904 0.2713 0.18087 0.94956 0.13565 0.63304 0.2713 1.4922 0.13565 0.8139 0.22609 1.7635 0.13565 0.94955 0.22608 1.8087 0.0904 0.85912 0.13565 1.5374 0.0904 0.67825 0.13565 0.94956zm-6.1495-3.3008q-0.2713-1.9895-1.04-3.12-0.72347-1.1756-1.8539-1.7182-1.0852-0.58782-2.5321-0.72347-1.4017-0.18087-3.0295-0.18087-0.54261 0-1.3565 0.04522-0.81391 0-1.6278 0.13565-0.8139 0.09043-1.5374 0.31652-0.72347 0.22608-1.1304 0.63304-0.31652 0.2713-0.5426 0.76869-0.18087 0.45217-0.31652 0.99477t-0.22608 1.0852q-0.0452 0.49739-0.0452 0.85912 0 0.72347 0.13565 1.4017z" style="font-variant-caps:normal;font-variant-east-asian:normal;font-variant-ligatures:normal;font-variant-numeric:normal"/>
   <path d="m83.158 149.25q-8.9168 0.67438-17.759 1.2738-8.7669 0.59944-17.684 1.124-0.37465-14.312-0.59945-28.399-0.22479-14.162-0.82424-28.549 5.0204-0.07493 9.8909-0.29972t9.8159-0.59945q-0.82424 5.5449-1.5735 11.165-0.67438 5.5449-1.049 11.165-0.29972 4.7206-0.52452 9.4413-0.14986 4.6457-0.29972 9.3664 4.9454 0.14986 9.741 0.14986 4.8705 0 9.741 0.14986z" style="font-variant-caps:normal;font-variant-east-asian:normal;font-variant-ligatures:normal;font-variant-numeric:normal"/>
   <path d="m142.8 121.46q0 0.59945 0 1.1989 0 0.52452-0.0749 1.124-0.0749 1.049-0.37465 3.4468-0.29972 2.3978-0.82424 5.0204-0.52452 2.5476-1.2738 4.7206-0.7493 2.173-1.6485 2.7724-0.44959 0.29972-3.0722 0.52452-2.5476 0.22479-6.2942 0.44958-3.6716 0.22479-8.0176 0.37466-4.346 0.14986-8.3173 0.29972-3.8964 0.0749-6.8936 0.14986-2.9223 0.0749-3.8964 0.0749-0.44959 0-1.5736 0-1.049 0-2.2479 0-1.1989-0.0749-2.2479-0.14986-1.049-0.0749-1.4986-0.22479-1.049-0.37466-2.0981-1.1989-1.049-0.89917-1.9482-1.9482-0.89917-1.124-1.6485-2.2479-0.67438-1.1989-0.9741-2.2479-0.22479-0.82424-0.37465-2.4727-0.14986-1.7234-0.22479-3.5218-0.07493-1.8733-0.14986-3.5967 0-1.7234 0-2.6226 0-1.4237 0.07493-3.8964 0.07493-2.5476 0.44958-5.1702 0.37465-2.6226 1.049-4.8705 0.74931-2.3229 2.0981-3.222 0.59945-0.37465 2.2479-0.67438 1.6485-0.29972 3.8964-0.52451t4.7956-0.29972q2.5476-0.14987 4.9454-0.14987 2.4727-0.0749 4.5708-0.0749 2.0981 0 3.3719 0.0749 1.124 0.0749 3.222 0.14987 2.0981 0 4.6457 0.0749 2.6226 0.0749 5.395 0.29972 2.7724 0.14986 5.1702 0.44958 2.3978 0.29973 4.1961 0.82424 1.8733 0.44959 2.4727 1.124 0.9741 1.049 1.5736 3.1471 0.59944 2.0981 0.89917 4.4959 0.37465 2.3228 0.44958 4.6457 0.14986 2.2479 0.14986 3.6716zm-15.885 1.5736q0-0.89917-0.0749-2.0981-0.0749-1.1989-0.22479-2.3978-0.14986-1.2738-0.44959-2.3978-0.29972-1.1989-0.74931-1.9482-0.59944-0.9741-2.3228-1.4986t-3.8215-0.74931q-2.0231-0.29972-4.0463-0.37465-1.9482-0.0749-2.9223-0.0749-0.52451 0-1.8733 0.0749-1.3488 0-2.8474 0.0749-1.4237 0.0749-2.6975 0.29972-1.2738 0.14986-1.6485 0.37466-0.67438 0.44958-1.049 1.4237-0.37466 0.89917-0.59945 2.0231-0.14986 1.124-0.22479 2.2479 0 1.049 0 1.7234t0.0749 2.4727q0.14986 1.7234 0.29972 3.7465 0.22479 1.9482 0.52452 3.5967 0.29972 1.6485 0.74931 2.0981 0.52451 0.59944 1.9482 0.9741 1.4986 0.37465 3.1471 0.67438 1.7234 0.22479 3.297 0.37465 1.5736 0.0749 2.2479 0.0749 1.1989 0 2.8474-0.0749t3.297-0.37465q1.7234-0.29973 3.222-0.82424 1.4986-0.52452 2.3978-1.4237 0.52452-0.52452 0.82424-1.5736 0.29973-1.049 0.44959-2.2479 0.14986-1.1989 0.14986-2.3229 0.0749-1.1989 0.0749-1.8733z" style="font-variant-caps:normal;font-variant-east-asian:normal;font-variant-ligatures:normal;font-variant-numeric:normal"/>
   <path d="m199.83 124.6q0 3.1471-0.0749 6.2942 0 3.0722 0 6.2193-0.0749 1.6485-0.0749 3.3719 0.0749 1.7234-0.0749 3.4468-0.22479 1.6485-0.44959 3.5218-0.22479 1.7983-0.74931 3.5967-0.52451 1.7983-1.4237 3.3719-0.82424 1.5736-2.2479 2.6975-0.37465 0.29972-1.4986 0.52452-1.124 0.22479-2.6226 0.44958-1.4986 0.22479-3.222 0.37466-1.7234 0.14986-3.297 0.22479-1.5736 0.14986-2.8474 0.22479-1.2738 0.14986-1.7983 0.14986-4.7206 0.14986-9.3664 0.2248-4.5708 0.0749-9.2914 0.0749h-4.7956q-0.14986-1.2738-0.29973-2.6226-0.14986-1.3488-0.14986-2.6975 0-1.4986-0.29972-3.0722-0.29973-1.6485-0.67438-3.222l4.9454 0.0749q0.44958 0 2.4727 0 2.0981-0.0749 4.8705-0.0749 2.7724-0.0749 5.9195-0.14986 3.222-0.14986 5.9195-0.37465 2.6975-0.2248 4.5708-0.52452 1.9482-0.29972 2.173-0.67438 0.59944-0.9741 0.7493-2.173 0.14987-1.2738 0.14987-2.3978 0-0.59945-0.0749-1.1989 0-0.67438-0.0749-1.2738-4.1961 0.29973-8.3173 0.52452t-8.3923 0.22479q-0.9741 0-2.4727 0-1.4237 0-2.9972-0.0749-1.4986-0.0749-2.9972-0.22479-1.4237-0.14986-2.3228-0.44959-1.4986-0.44958-3.0722-0.9741-1.4986-0.59945-2.8474-1.4237-1.3488-0.82423-2.3978-1.9482-0.9741-1.1989-1.3488-2.8474-0.2248-0.82424-0.29973-1.7983 0-0.9741 0-1.7983 0-2.0981 0.2248-5.3201 0.22479-3.222 0.7493-6.519 0.59945-3.3719 1.4986-6.2942 0.9741-2.9972 2.3978-4.4958 0.82424-0.89917 2.6226-1.5736 1.8733-0.67438 4.1961-1.124 2.3228-0.44959 4.8705-0.74931 2.6226-0.37466 5.0953-0.52452t4.4958-0.22479q2.0981-0.0749 3.297-0.0749 4.1961 0 8.3923 0.22479l0.52451-4.7956 12.588 1.8733q0.0749 6.519 0.0749 12.963 0.0749 6.444 0.0749 13.038zm-13.263-1.4237q0-2.3978-0.0749-4.6457-0.0749-2.3229-0.22479-4.7206-3.297-0.74931-6.5939-1.1989-3.297-0.44959-6.7438-0.44959-0.59945 0-1.7983 0.0749t-2.5476 0.29973q-1.2738 0.14986-2.3978 0.52451-1.124 0.29973-1.5735 0.74931-0.67438 0.74931-0.82424 1.7234-0.14987 0.9741-0.14987 1.9482 0 0.82423 0.14987 2.5476 0.22479 1.6485 0.52451 3.4468 0.29973 1.7983 0.74931 3.3719 0.44959 1.5736 0.89917 2.173 0.44959 0.59944 1.124 0.89917 0.67438 0.29972 1.4237 0.44958 0.82424 0.0749 1.5736 0.14986 0.82424 0 1.4237 0 1.4986 0 3.5967-0.0749 2.173-0.14986 4.2711-0.44958 2.173-0.29972 4.0463-0.82424 1.8733-0.59945 2.8474-1.5736 0.14986-0.0749 0.22479-0.74931 0.0749-0.67438 0.0749-1.4237 0-0.74931 0-1.4237t0-0.82424z" style="font-variant-caps:normal;font-variant-east-asian:normal;font-variant-ligatures:normal;font-variant-numeric:normal"/>
  </g>
 </g>
</svg>
