<?xml version="1.0" standalone="no"?>
<!DOCTYPE svg PUBLIC "-//W3C//DTD SVG 20010904//EN"
 "http://www.w3.org/TR/2001/REC-SVG-20010904/DTD/svg10.dtd">
<svg version="1.0" xmlns="http://www.w3.org/2000/svg"
 width="500.000000pt" height="500.000000pt" viewBox="0 0 500.000000 500.000000"
 preserveAspectRatio="xMidYMid meet">
<metadata>
Created by potrace 1.11, written by Peter Selinger 2001-2013
</metadata>
<g transform="translate(0.000000,500.000000) scale(0.100000,-0.100000)"
fill="#000000" stroke="none">
<path d="M1978 4391 c-85 -12 -186 -60 -172 -83 3 -4 -2 -8 -11 -8 -9 0 -14
-4 -11 -8 6 -9 -63 -46 -71 -38 -3 2 9 12 26 21 41 21 39 29 -4 22 -37 -6 -49
-14 -98 -66 -18 -18 -63 -53 -102 -78 -38 -25 -72 -49 -75 -52 -3 -4 -20 -13
-39 -21 -55 -22 -153 -142 -180 -220 -6 -19 -23 -52 -36 -72 -14 -21 -25 -48
-25 -61 0 -13 -14 -52 -31 -85 -29 -58 -30 -67 -25 -144 3 -46 6 -92 6 -102 1
-10 8 -33 17 -50 9 -17 18 -58 19 -91 4 -68 33 -235 44 -250 4 -5 10 -29 14
-53 3 -23 10 -51 15 -61 6 -10 23 -58 40 -107 l29 -88 -19 -51 c-11 -27 -24
-60 -30 -71 -15 -30 -3 -79 29 -117 33 -40 46 -60 73 -117 12 -25 50 -82 85
-128 40 -52 64 -92 64 -108 0 -15 13 -38 31 -57 17 -17 42 -60 56 -96 58 -158
124 -264 225 -361 37 -36 68 -68 68 -71 0 -3 -29 -3 -65 -1 -50 3 -65 1 -65
-9 0 -11 20 -15 76 -16 101 -3 110 -7 139 -58 l26 -43 -50 -47 c-55 -52 -102
-119 -122 -179 -9 -24 -32 -53 -64 -79 -27 -22 -75 -64 -105 -93 -30 -28 -75
-64 -100 -80 -71 -43 -279 -196 -361 -264 -40 -35 -118 -92 -171 -127 -99 -66
-149 -116 -185 -188 -28 -55 -73 -199 -97 -307 l-6 -28 2130 0 2130 0 0 233
c-1 128 -4 237 -8 242 -4 6 -20 20 -35 32 -15 12 -27 24 -25 27 2 3 -14 26
-36 51 -26 32 -44 45 -56 42 -12 -3 -32 9 -57 35 -44 46 -96 80 -115 76 -7 -2
-12 3 -11 10 2 7 -8 12 -26 12 -16 0 -31 3 -33 8 -1 4 -23 23 -47 42 -24 19
-39 36 -33 38 12 4 -49 62 -64 62 -5 0 0 -8 11 -16 11 -9 13 -14 5 -10 -8 3
-23 9 -32 12 -21 7 -24 24 -5 24 6 0 -3 14 -20 30 -18 16 -33 34 -33 40 0 10
-34 31 -47 29 -13 -3 -60 19 -68 31 -4 7 7 4 25 -5 17 -9 34 -14 37 -11 6 6
-51 36 -78 41 -11 2 -32 13 -47 23 -45 32 -76 46 -67 31 6 -9 3 -11 -9 -6 -10
4 -22 7 -27 7 -5 0 -9 6 -9 13 0 6 -16 22 -36 35 -19 12 -32 26 -30 31 6 9
-30 51 -43 51 -4 0 -13 12 -20 26 -11 26 -12 26 -26 8 -13 -18 -14 -16 -15 21
-1 22 -5 49 -9 59 -7 19 -8 19 -14 -3 -7 -29 -24 -20 -32 19 -4 17 -16 37 -28
45 -12 8 -16 15 -10 15 6 0 25 -12 42 -26 46 -39 41 -3 -6 41 -21 20 -70 66
-109 103 -39 37 -74 78 -78 90 -4 12 -14 22 -21 22 -8 0 -12 6 -9 14 9 23 -59
35 -171 31 -55 -3 -113 -8 -130 -13 l-30 -9 58 -57 c31 -31 84 -74 116 -94
l60 -37 -85 -160 c-47 -88 -111 -194 -143 -235 -52 -68 -205 -314 -233 -375
-6 -13 -43 -49 -82 -79 -39 -30 -96 -80 -126 -110 -30 -31 -63 -56 -75 -56
-37 0 -128 -54 -156 -94 -16 -21 -78 -89 -138 -151 l-109 -113 -20 21 c-11 12
-53 78 -92 147 -138 243 -167 323 -157 433 3 32 7 61 10 63 9 10 54 -41 77
-86 29 -58 83 -139 93 -140 17 0 -46 265 -68 290 -8 9 -15 20 -15 24 0 5 -6
22 -14 39 -19 43 -26 78 -15 71 5 -3 9 -1 9 4 0 6 9 8 20 5 11 -3 18 -9 15
-13 -3 -5 9 -13 27 -19 42 -15 48 -14 41 5 -5 14 -3 15 14 6 28 -16 49 6 25
25 -9 8 -11 12 -4 8 21 -11 14 29 -8 43 -11 7 -20 19 -20 26 0 8 -11 24 -25
34 -14 11 -21 23 -16 27 6 3 8 12 4 20 -3 9 1 15 8 15 11 0 11 3 -1 10 -13 8
-12 10 3 10 10 0 34 7 55 16 20 10 42 17 49 18 6 1 20 11 31 24 11 12 26 22
33 22 8 0 21 9 29 20 8 11 22 20 30 20 9 0 24 6 33 13 15 11 14 12 -12 11 -16
0 -43 -7 -60 -14 -20 -8 -47 -10 -74 -6 -23 4 -55 8 -71 10 -15 2 -39 10 -53
17 -20 11 -26 11 -33 -1 -7 -11 -15 -10 -46 5 -21 10 -48 30 -59 44 -38 49
-108 121 -118 121 -12 0 -99 69 -111 89 -5 8 -35 42 -67 75 -33 33 -59 63 -59
67 0 4 -11 7 -25 7 -27 0 -64 37 -65 65 0 10 -8 30 -17 44 -10 15 -18 36 -18
48 -1 36 -16 85 -26 79 -5 -3 -9 4 -9 14 0 11 -7 25 -15 32 -9 7 -14 15 -11
17 2 2 -7 16 -20 30 -13 14 -24 33 -24 42 0 25 -31 164 -41 181 -37 64 -58
126 -73 220 -18 111 -7 137 33 81 12 -16 21 -33 21 -39 0 -5 18 -8 40 -7 22 1
40 -2 40 -6 0 -5 0 -11 0 -14 0 -27 133 -75 146 -53 4 5 13 7 21 4 9 -4 39 -3
67 0 28 4 45 9 39 11 -19 7 -16 23 4 23 28 0 73 51 73 82 0 35 19 36 50 3 25
-26 21 -39 -15 -48 -11 -3 -3 -5 18 -6 30 -1 40 -6 44 -22 4 -14 11 -18 22
-14 9 4 20 7 26 8 13 3 36 66 36 100 0 49 -11 64 -58 82 -25 10 -64 35 -86 56
l-39 39 -82 -2 c-44 -2 -110 1 -146 5 -80 10 -75 10 -133 2 -34 -4 -47 -3 -42
4 3 6 1 11 -5 11 -6 0 -9 4 -6 9 9 14 -4 41 -19 41 -8 0 -17 5 -21 12 -4 7 -3
8 4 4 16 -10 16 -9 -12 49 -14 27 -22 53 -19 58 2 4 0 13 -5 20 -15 17 -49
145 -57 209 -4 32 -2 65 5 83 12 32 43 65 60 65 5 0 10 7 10 15 0 8 3 15 8 15
4 0 16 16 26 35 11 19 23 35 28 35 4 0 30 15 57 34 47 33 95 52 157 60 32 4
82 20 129 41 70 31 113 46 155 54 25 5 70 16 100 25 30 9 65 16 78 16 14 0 21
4 17 11 -5 6 12 10 47 9 97 -2 139 0 179 9 22 5 41 5 45 0 3 -5 15 -3 27 5 23
15 54 13 99 -5 15 -6 32 -8 39 -3 7 4 42 9 78 10 l66 3 33 -82 c18 -45 32 -91
32 -103 0 -11 7 -36 17 -54 9 -18 17 -44 19 -57 1 -14 10 -40 19 -59 9 -19 18
-48 20 -65 2 -17 11 -39 19 -48 9 -10 16 -21 16 -25 0 -7 1 -9 60 -76 28 -32
48 -71 70 -139 17 -51 29 -96 26 -99 -3 -3 0 -12 6 -20 7 -8 13 -20 13 -26 3
-73 33 -154 36 -98 5 96 20 142 74 232 20 33 19 229 -2 280 -8 20 -16 81 -17
141 -2 58 -8 115 -14 125 -5 10 -13 37 -17 59 -9 45 -9 42 -20 70 -10 28 -82
173 -106 215 -11 19 -24 53 -30 75 -16 61 -37 82 -124 120 -48 20 -80 40 -80
49 0 24 -63 73 -102 81 -19 3 -53 19 -75 35 -23 17 -46 26 -55 23 -10 -4 -14
-2 -10 4 19 30 -210 77 -353 72 -41 -2 -106 0 -145 3 -38 4 -96 3 -127 -1z
m-3 -42 c-48 -22 -79 -26 -50 -5 21 14 49 23 75 24 8 0 -3 -8 -25 -19z m51
-15 c-9 -8 -21 -12 -27 -8 -13 7 7 24 29 24 10 0 10 -4 -2 -16z m-141 -34 c-3
-5 -21 -10 -38 -9 -31 1 -31 1 -7 9 36 11 52 11 45 0z m128 -7 c-7 -2 -21 -2
-30 0 -10 3 -4 5 12 5 17 0 24 -2 18 -5z m-88 -17 c-23 -15 -94 -33 -82 -20 8
8 70 31 92 33 5 1 1 -5 -10 -13z m185 6 c0 -5 24 -13 53 -19 28 -6 36 -9 16
-7 -19 2 -44 -3 -55 -10 -14 -10 -34 -12 -69 -8 l-50 7 45 6 45 6 -35 8 c-29
7 -31 9 -15 16 27 10 65 11 65 1z m-325 -37 c-51 -19 -67 -18 -35 0 14 8 36
14 50 14 20 0 17 -3 -15 -14z m-90 -5 c3 -6 -1 -7 -9 -4 -18 7 -21 14 -7 14 6
0 13 -4 16 -10z m255 6 c0 -2 -9 -6 -20 -9 -11 -3 -20 -1 -20 4 0 5 9 9 20 9
11 0 20 -2 20 -4z m-53 -12 c-3 -3 -12 -4 -19 -1 -8 3 -5 6 6 6 11 1 17 -2 13
-5z m98 -14 c18 -7 18 -9 3 -15 -23 -9 -61 -2 -66 13 -4 14 31 15 63 2z m-88
-11 c6 -6 35 -18 65 -25 l53 -14 -49 5 c-27 3 -54 9 -60 14 -6 4 -24 13 -41
19 -29 10 -29 10 -4 11 14 1 30 -4 36 -10z m-124 -6 c-7 -2 -21 -2 -30 0 -10
3 -4 5 12 5 17 0 24 -2 18 -5z m537 -28 c14 -8 21 -14 15 -14 -5 0 -21 6 -35
14 -14 8 -20 14 -15 14 6 0 21 -6 35 -14z m-290 -42 c13 -15 13 -16 0 -6 -9 7
-28 14 -44 17 -16 3 -31 8 -35 12 -3 4 10 4 29 0 19 -3 42 -14 50 -23z m-80 7
c8 -5 11 -10 5 -10 -5 0 -17 5 -25 10 -8 5 -10 10 -5 10 6 0 17 -5 25 -10z
m-257 -37 c-7 -2 -19 -2 -25 0 -7 3 -2 5 12 5 14 0 19 -2 13 -5z m27 -43 c12
-8 9 -10 -12 -10 -15 0 -30 5 -33 10 -8 13 25 13 45 0z m-240 -29 c0 -9 -24
-21 -41 -21 -16 0 -10 18 9 23 28 8 32 7 32 -2z m205 -31 c-3 -5 -12 -10 -18
-10 -7 0 -6 4 3 10 19 12 23 12 15 0z m-52 -7 c-7 -2 -19 -2 -25 0 -7 3 -2 5
12 5 14 0 19 -2 13 -5z m832 -213 c-3 -5 -11 -10 -16 -10 -6 0 -7 5 -4 10 3 6
11 10 16 10 6 0 7 -4 4 -10z m-605 -1060 c17 -5 19 -8 8 -9 -10 -1 -18 -5 -18
-10 0 -4 -24 -11 -54 -14 -30 -3 -70 -12 -88 -20 -46 -21 -74 -26 -88 -17 -9
6 -6 10 9 15 12 3 19 10 16 15 -5 8 31 28 75 43 23 8 112 6 140 -3z m27 -86
c-3 -3 -12 -4 -19 -1 -8 3 -5 6 6 6 11 1 17 -2 13 -5z m-91 -87 c1 -11 -5 -17
-17 -17 -12 0 -16 5 -13 15 4 8 1 15 -5 15 -6 0 -11 4 -11 10 0 16 43 -5 46
-23z m2039 -1147 c14 -16 15 -20 4 -20 -16 0 -39 19 -39 32 0 14 16 9 35 -12z
m63 -118 c6 -18 -15 -14 -22 4 -4 10 -1 14 6 12 6 -2 14 -10 16 -16z m32 -22
c0 -5 -2 -10 -4 -10 -3 0 -8 5 -11 10 -3 6 -1 10 4 10 6 0 11 -4 11 -10z m-15
-182 c-8 -46 -16 -49 -13 -5 1 20 6 37 10 37 5 0 6 -14 3 -32z m-14 -129 c-10
-31 -10 -28 -6 21 6 68 7 72 12 39 2 -15 -1 -42 -6 -60z m-30 -102 c-10 -9
-11 -8 -5 6 3 10 9 15 12 12 3 -3 0 -11 -7 -18z m-18 -50 c-25 -53 -32 -78
-27 -92 4 -10 0 -15 -11 -15 -11 0 -15 6 -11 18 2 9 8 33 11 52 7 35 34 75 43
65 3 -3 1 -15 -5 -28z m-50 3 c-5 -19 -23 -29 -23 -12 0 7 20 32 26 32 1 0 0
-9 -3 -20z m-633 -304 c0 -2 -13 -6 -30 -8 -16 -3 -30 -1 -30 4 0 4 14 8 30 8
17 0 30 -2 30 -4z m93 -3 c-7 -2 -19 -2 -25 0 -7 3 -2 5 12 5 14 0 19 -2 13
-5z m1712 -113 c3 -5 -3 -10 -14 -10 -11 0 -23 5 -26 10 -3 6 3 10 14 10 11 0
23 -4 26 -10z m-90 -19 c-3 -5 -1 -12 5 -16 5 -3 10 -12 10 -18 0 -7 -5 -4
-11 6 -5 9 -17 17 -25 17 -8 0 -12 5 -9 10 3 6 13 10 21 10 8 0 13 -4 9 -9z"/>
<path d="M2510 2973 c-55 -5 -123 -23 -139 -36 -8 -7 -24 -12 -35 -12 -17 0
-21 -7 -23 -33 -1 -26 2 -32 15 -28 10 2 37 7 62 11 39 5 91 24 187 68 12 5
19 15 16 23 -5 14 -13 14 -83 7z"/>
<path d="M3350 2951 c19 -9 37 -16 40 -13 9 7 -34 32 -54 32 -16 -1 -13 -5 14
-19z"/>
<path d="M2519 2861 c-47 -10 -104 -45 -134 -85 -29 -38 -31 -48 -10 -40 10 4
15 0 15 -12 0 -13 3 -15 11 -7 13 13 42 6 33 -8 -3 -5 -16 -9 -30 -9 -13 0
-24 -4 -24 -9 0 -11 60 -21 128 -21 41 0 52 3 52 16 0 13 -3 14 -15 4 -8 -6
-22 -10 -32 -7 -15 3 -14 6 7 15 l25 11 -31 0 c-41 1 -59 22 -44 50 15 29 26
26 61 -14 17 -19 40 -35 51 -35 33 0 79 29 76 49 -5 29 20 53 43 40 11 -5 17
-14 14 -20 -4 -5 5 -9 19 -9 31 0 38 10 21 33 -16 23 -94 47 -149 47 -30 0
-37 3 -26 10 12 8 11 10 -5 9 -11 -1 -36 -4 -56 -8z m91 -61 c0 -5 -5 -10 -11
-10 -5 0 -7 5 -4 10 3 6 8 10 11 10 2 0 4 -4 4 -10z"/>
<path d="M2747 2839 c7 -7 15 -10 18 -7 3 3 -2 9 -12 12 -14 6 -15 5 -6 -5z"/>
<path d="M3250 2806 c0 -2 7 -6 15 -10 8 -3 15 -1 15 4 0 6 -7 10 -15 10 -8 0
-15 -2 -15 -4z"/>
<path d="M2058 2153 c-25 -4 -26 -7 -23 -49 1 -25 5 -47 8 -51 4 -3 -2 -17
-13 -30 -10 -13 -16 -31 -13 -40 5 -13 0 -14 -25 -8 -23 5 -32 3 -32 -6 0 -7
-3 -9 -6 -6 -7 7 -58 -19 -86 -44 -17 -15 -17 -16 -1 -31 10 -9 33 -23 51 -32
17 -9 32 -21 32 -27 0 -5 14 -15 30 -20 18 -7 30 -18 30 -29 0 -28 110 -140
137 -140 13 0 35 -7 48 -16 17 -11 25 -12 25 -5 0 7 5 9 10 6 6 -4 7 -12 4
-18 -5 -8 -3 -8 7 1 7 6 24 13 39 13 16 1 19 3 8 6 -10 2 -18 9 -18 14 0 5 -6
9 -13 9 -7 0 -32 9 -55 20 -22 11 -53 20 -67 20 -14 0 -25 4 -25 9 0 5 -3 16
-6 25 -4 11 2 15 25 14 35 -1 46 6 46 30 0 9 13 19 33 24 28 7 31 12 26 32 -6
24 9 33 81 49 22 5 30 4 -120 12 -49 2 -96 5 -102 6 -18 3 -16 16 2 23 8 3 14
11 13 18 -2 8 9 14 24 16 17 2 25 8 22 16 -3 8 4 16 16 19 14 4 19 10 14 18
-4 8 -3 10 4 5 16 -10 62 23 56 39 -4 8 3 15 18 18 18 3 17 5 -8 6 -30 1 -95
40 -123 74 -13 17 -21 18 -73 10z m112 -493 c0 -5 -2 -10 -4 -10 -3 0 -8 5
-11 10 -3 6 -1 10 4 10 6 0 11 -4 11 -10z"/>
<path d="M2645 1981 c-27 -17 -60 -34 -71 -40 -18 -8 -41 -51 -28 -51 11 0 92
45 120 66 21 17 44 24 74 24 51 0 44 18 -11 26 -26 3 -46 -3 -84 -25z"/>
<path d="M2490 1880 c0 -5 4 -10 9 -10 6 0 13 5 16 10 3 6 -1 10 -9 10 -9 0
-16 -4 -16 -10z"/>
<path d="M160 1530 c58 -3 114 -3 125 1 11 4 -36 7 -105 7 l-125 -1 105 -7z"/>
<path d="M336 1532 c-3 -5 36 -9 87 -9 58 0 81 3 62 7 -43 11 -143 12 -149 2z"/>
<path d="M522 1524 c10 -9 78 -12 84 -3 3 5 -16 9 -42 9 -26 0 -45 -3 -42 -6z"/>
<path d="M703 1524 c3 -4 33 -6 67 -6 34 0 64 2 67 6 4 3 -27 6 -67 6 -40 0
-71 -3 -67 -6z"/>
<path d="M851 1525 c8 -7 78 -9 85 -2 4 4 -14 7 -41 7 -27 0 -46 -2 -44 -5z"/>
<path d="M987 1519 c26 -9 123 -7 123 3 0 3 -33 6 -72 6 -50 -1 -66 -3 -51 -9z"/>
<path d="M1130 1520 c0 -6 16 -11 35 -12 19 -1 47 -3 63 -4 71 -8 304 -8 309
-1 3 4 10 4 16 -1 7 -6 53 -10 102 -9 58 0 70 2 35 4 -30 2 -60 9 -67 14 -9 8
-153 11 -308 7 -5 0 -49 2 -97 6 -55 3 -88 2 -88 -4z"/>
<path d="M670 1381 c0 -11 26 -22 34 -14 3 3 3 10 0 14 -7 12 -34 11 -34 0z"/>
<path d="M698 1283 c7 -3 16 -2 19 1 4 3 -2 6 -13 5 -11 0 -14 -3 -6 -6z"/>
<path d="M4072 1175 c20 -14 41 -25 45 -25 15 0 -52 49 -67 50 -8 0 2 -11 22
-25z"/>
<path d="M660 740 c0 -5 4 -10 9 -10 6 0 13 5 16 10 3 6 -1 10 -9 10 -9 0 -16
-4 -16 -10z"/>
<path d="M18 503 c7 -3 16 -2 19 1 4 3 -2 6 -13 5 -11 0 -14 -3 -6 -6z"/>
<path d="M131 506 c8 -8 88 -10 95 -3 4 4 -17 7 -46 7 -29 0 -51 -2 -49 -4z"/>
<path d="M345 501 c-16 -7 -12 -9 20 -13 22 -3 45 -1 51 4 7 5 32 4 60 -1 111
-22 151 -27 199 -27 28 1 51 6 52 11 1 6 -18 9 -47 7 -28 -1 -76 4 -109 13
-62 16 -192 19 -226 6z"/>
<path d="M273 493 c9 -2 25 -2 35 0 9 3 1 5 -18 5 -19 0 -27 -2 -17 -5z"/>
<path d="M840 480 c0 -5 5 -10 11 -10 5 0 7 5 4 10 -3 6 -8 10 -11 10 -2 0 -4
-4 -4 -10z"/>
</g>
</svg>
