<?xml version="1.0" encoding="iso-8859-1"?>
<!-- Generator: Adobe Illustrator 19.0.0, SVG Export Plug-In . SVG Version: 6.00 Build 0)  -->
<svg version="1.1" id="Layer_1" xmlns="http://www.w3.org/2000/svg" xmlns:xlink="http://www.w3.org/1999/xlink" x="0px" y="0px"
	 viewBox="0 0 300.24 300.24" style="enable-background:new 0 0 300.24 300.24;" xml:space="preserve">
<g id="XMLID_1498_">
	<g>
		<g>
			<path d="M22.72,156.024h62.512c-0.159-5.778,1.058-11.255,3.491-16.25H30.845v-117h235.3v108.771
				c5.914,6.516,9.305,15.108,9.064,24.42c4.044-0.467,7.186-3.897,7.186-8.066V14.649c0-4.487-3.638-8.125-8.125-8.125H22.72
				c-4.487,0-8.125,3.638-8.125,8.125v133.25C14.595,152.386,18.233,156.024,22.72,156.024z"/>
			<path d="M208.722,139.774h-57.004c2.426,4.981,3.65,10.455,3.491,16.25h50.022C205.072,150.246,206.289,144.769,208.722,139.774z
				"/>
			<path d="M300.101,215.474c-0.077-15.421-12.687-27.963-28.104-27.963c-7.209,0-54.996,0-61.905,0
				c3.258,5.316,5.14,11.563,5.14,18.242c0,8.229-2.87,15.94-7.848,22.058c1.782,0,2.868,0,4.613,0
				c12.452,0,23.562,5.975,30.61,15.204h28.772v-27.411c0-1.37,1.11-2.482,2.48-2.485c1.37-0.003,2.485,1.104,2.491,2.475
				l0.138,27.422h23.752L300.101,215.474z"/>
			<path d="M120.12,240.075c7.039-7.536,17.048-12.264,28.122-12.264c0.533,0,4.321,0,4.813,0
				c-4.924-6.052-7.848-13.746-7.848-22.058c0-6.679,1.882-12.925,5.14-18.242c-6.299,0-54.029,0-60.253,0
				c3.258,5.316,5.14,11.563,5.14,18.242c0,8.228-2.87,15.94-7.848,22.058C93.082,227.811,107.719,226.797,120.12,240.075z"/>
			<path d="M120.22,179.666c13.076,0,23.917-10.256,24.581-23.347c0.716-14.125-10.53-25.88-24.581-25.88
				c-14.047,0-25.297,11.753-24.581,25.88C96.304,169.442,107.177,179.666,120.22,179.666z"/>
			<path d="M215.606,155.052c0,13.619,11.052,24.613,24.613,24.613c13.672,0,24.613-11.107,24.613-24.613
				c0-13.592-11.014-24.613-24.613-24.613C226.628,130.439,215.606,141.457,215.606,155.052z"/>
			<path d="M211.998,238.211c-7.671,0-57.104,0-63.756,0c-8.488,0-16.544,3.83-21.966,10.622
				c-6.167,7.727-6.209,15.927-6.178,17.164c-0.173-15.337-12.739-27.786-28.099-27.786c-6.61,0-57.132,0-63.756,0
				c-15.419,0-28.027,12.544-28.104,27.963L0,293.715h23.752l0.138-27.422c0.007-1.265,1.035-2.285,2.299-2.282
				c1.264,0.003,2.287,1.029,2.287,2.293v27.41H91.38v-27.388c0-1.366,1.102-2.476,2.468-2.485c1.366-0.009,2.484,1.086,2.502,2.452
				l0.138,27.422c5.056,0,42.156,0,47.263,0l0.138-27.422c0.006-1.265,1.035-2.285,2.299-2.282c1.264,0.003,2.287,1.03,2.287,2.293
				v27.41h62.904v-27.784c0-1.262,0.954-2.32,2.209-2.452c1.255-0.131,2.409,0.707,2.669,1.942c0.136,0.65,0.082-1.263,0.23,28.294
				h23.754c-0.151-30.099,0.068-29.697-0.848-33.68C236.516,247.522,225.28,238.211,211.998,238.211z"/>
			<path d="M35.607,205.753c0,0.425,0.011,0.847,0.032,1.267c0.662,13.05,11.463,23.347,24.581,23.347
				c13.528,0,24.613-10.964,24.613-24.613c0-13.593-11.019-24.613-24.613-24.613C46.626,181.14,35.607,192.159,35.607,205.753z"/>
			<path d="M155.607,205.752c0,13.671,11.107,24.613,24.613,24.613c13.649,0,24.613-11.086,24.613-24.613
				c0-13.557-10.981-24.613-24.613-24.613C166.62,181.139,155.607,192.165,155.607,205.752z"/>
		</g>
	</g>
</g>
<g>
</g>
<g>
</g>
<g>
</g>
<g>
</g>
<g>
</g>
<g>
</g>
<g>
</g>
<g>
</g>
<g>
</g>
<g>
</g>
<g>
</g>
<g>
</g>
<g>
</g>
<g>
</g>
<g>
</g>
</svg>
