<?xml version="1.0" encoding="UTF-8" standalone="no"?>
<svg
   xmlns:dc="http://purl.org/dc/elements/1.1/"
   xmlns:cc="http://creativecommons.org/ns#"
   xmlns:rdf="http://www.w3.org/1999/02/22-rdf-syntax-ns#"
   xmlns:svg="http://www.w3.org/2000/svg"
   xmlns="http://www.w3.org/2000/svg"
   xmlns:sodipodi="http://sodipodi.sourceforge.net/DTD/sodipodi-0.dtd"
   xmlns:inkscape="http://www.inkscape.org/namespaces/inkscape"
   version="1.1"
   viewBox="0 0 60 60"
   width="60"
   id="svg3399"
   inkscape:version="0.91 r13725"
   sodipodi:docname="icon-twitter.svg"
   height="60">
  <metadata
     id="metadata3412">
    <rdf:RDF>
      <cc:Work
         rdf:about="">
        <dc:format>image/svg+xml</dc:format>
        <dc:type
           rdf:resource="http://purl.org/dc/dcmitype/StillImage" />
        <dc:title></dc:title>
      </cc:Work>
    </rdf:RDF>
  </metadata>
  <sodipodi:namedview
     pagecolor="#ffffff"
     bordercolor="#666666"
     borderopacity="1"
     objecttolerance="10"
     gridtolerance="10"
     guidetolerance="10"
     inkscape:pageopacity="0"
     inkscape:pageshadow="2"
     inkscape:window-width="1360"
     inkscape:window-height="936"
     id="namedview3410"
     showgrid="false"
     fit-margin-top="0"
     fit-margin-left="0"
     fit-margin-right="0"
     fit-margin-bottom="0"
     inkscape:zoom="16.483333"
     inkscape:cx="30"
     inkscape:cy="49.874268"
     inkscape:window-x="0"
     inkscape:window-y="0"
     inkscape:window-maximized="0"
     inkscape:current-layer="svg3399" />
  <defs
     id="defs3403" />
  <g
     id="black"
     style="fill:none;fill-rule:evenodd;stroke:none;stroke-width:1">
    <g
       id="twitter">
      <path
         d="M 30,60 C 46.568543,60 60,46.568543 60,30 60,13.431457 46.568543,0 30,0 13.431457,0 0,13.431457 0,30 0,46.568543 13.431457,60 30,60 Z"
         id="Twitter"
         inkscape:connector-curvature="0" />
      <path
         d="m 41.052138,18.436694 c -1.208953,-1.374493 -2.931599,-2.25023 -4.838077,-2.281963 -3.660461,-0.06093 -6.628407,3.032192 -6.628407,6.908385 0,0.550125 0.05864,1.086577 0.171715,1.601557 -5.508784,-0.35732 -10.3929,-3.225902 -13.661954,-7.549951 -0.570553,1.03614 -0.897507,2.247161 -0.897507,3.544428 0,2.455838 1.170184,4.635377 2.948723,5.922267 -1.086508,-0.04797 -2.108562,-0.376879 -3.002192,-0.916465 -6.47e-4,0.02949 -6.47e-4,0.05899 -6.47e-4,0.08901 0,3.429588 2.2848,6.306746 5.317039,6.976976 -0.556177,0.1576 -1.141754,0.240078 -1.746231,0.23607 -0.427108,-0.0028 -0.842423,-0.0502 -1.247077,-0.13524 0.843392,2.81261 3.291185,4.864998 6.191769,4.93286 -2.268484,1.883068 -5.126423,3.004565 -8.232,2.998159 -0.535015,-0.0011 -1.0626,-0.03568 -1.581138,-0.102187 2.933377,2.012714 6.417438,3.184571 10.160607,3.185553 12.191793,0.0032 18.85897,-10.606642 18.85897,-19.809384 0,-0.301933 -0.0066,-0.60225 -0.01922,-0.901117 1.295054,-0.964986 2.418715,-2.174863 3.307338,-3.556433 -1.1886,0.535797 -2.466208,0.89165 -3.806815,1.040919 1.368392,-0.842173 2.419523,-2.190042 2.914315,-3.80638 -1.280838,0.776734 -2.699308,1.333755 -4.209208,1.622936 z"
         id="path3408"
         inkscape:connector-curvature="0"
         style="fill:#ffffff" />
    </g>
  </g>
</svg>
