<?xml version="1.0" encoding="UTF-8" standalone="no"?>
<svg
   xmlns:dc="http://purl.org/dc/elements/1.1/"
   xmlns:cc="http://creativecommons.org/ns#"
   xmlns:rdf="http://www.w3.org/1999/02/22-rdf-syntax-ns#"
   xmlns:svg="http://www.w3.org/2000/svg"
   xmlns="http://www.w3.org/2000/svg"
   xmlns:sodipodi="http://sodipodi.sourceforge.net/DTD/sodipodi-0.dtd"
   xmlns:inkscape="http://www.inkscape.org/namespaces/inkscape"
   version="1.1"
   id="svg3514"
   inkscape:version="0.91 r13725"
   sodipodi:docname="icon-github.svg"
   viewBox="0 0 60 60"
   width="60"
   height="60">
  <metadata
     id="metadata3528">
    <rdf:RDF>
      <cc:Work
         rdf:about="">
        <dc:format>image/svg+xml</dc:format>
        <dc:type
           rdf:resource="http://purl.org/dc/dcmitype/StillImage" />
        <dc:title></dc:title>
      </cc:Work>
    </rdf:RDF>
  </metadata>
  <sodipodi:namedview
     pagecolor="#ffffff"
     bordercolor="#666666"
     borderopacity="1"
     objecttolerance="10"
     gridtolerance="10"
     guidetolerance="10"
     inkscape:pageopacity="0"
     inkscape:pageshadow="2"
     inkscape:window-width="640"
     inkscape:window-height="480"
     id="namedview3526"
     showgrid="false"
     fit-margin-top="0"
     fit-margin-left="0"
     fit-margin-right="0"
     fit-margin-bottom="0"
     inkscape:zoom="2.36"
     inkscape:cx="50"
     inkscape:cy="10"
     inkscape:window-x="40"
     inkscape:window-y="84"
     inkscape:window-maximized="0"
     inkscape:current-layer="svg3514" />
  <defs
     id="defs3518" />
  <g
     id="black"
     style="fill:none;fill-rule:evenodd;stroke:none;stroke-width:1">
    <g
       id="github">
      <path
         d="M 30,60 C 46.568543,60 60,46.568543 60,30 60,13.431457 46.568543,0 30,0 13.431457,0 0,13.431457 0,30 0,46.568543 13.431457,60 30,60 Z"
         id="path3522"
         inkscape:connector-curvature="0" />
      <path
         d="m 25.425274,47.516889 c 0,-0.449716 -0.01587,-1.639662 -0.02493,-3.220059 -5.135162,1.143464 -6.218635,-2.537931 -6.218635,-2.537931 -0.839805,-2.18699 -2.050212,-2.76918 -2.050212,-2.76918 -1.676209,-1.174839 0.126934,-1.150436 0.126934,-1.150436 1.853011,0.133637 2.827683,1.951093 2.827683,1.951093 1.646743,2.892358 4.320291,2.058002 5.373164,1.573424 0.167734,-1.223645 0.64487,-2.058002 1.171873,-2.530959 -4.09929,-0.477605 -8.409381,-2.102159 -8.409381,-9.355715 0,-2.066137 0.719671,-3.755767 1.900611,-5.079349 -0.189268,-0.478767 -0.823938,-2.403132 0.181334,-5.009625 0,0 1.550409,-0.50898 5.076229,1.940634 1.472209,-0.419502 3.052084,-0.630996 4.622893,-0.637968 1.567409,0.007 3.146152,0.218466 4.62176,0.637968 3.523553,-2.449614 5.071696,-1.940634 5.071696,-1.940634 1.007539,2.605331 0.374002,4.529696 0.183601,5.009625 1.183206,1.323582 1.89721,3.013212 1.89721,5.079349 0,7.272148 -4.316891,8.8723 -8.429781,9.340609 0.664137,0.584514 1.253474,1.739598 1.253474,3.505924 0,2.530959 -0.0238,4.572692 -0.0238,5.19323 0,0.506656 0.333202,1.094657 1.270474,0.90989 7.329308,-2.507718 12.614072,-9.598586 12.614072,-17.958419 0,-10.455021 -8.266581,-18.929898 -18.462106,-18.929898 -10.194391,0 -18.460971,8.474877 -18.460971,18.929898 0.0011,8.362157 5.29043,15.457674 12.626538,17.960743 0.922539,0.173146 1.260274,-0.411368 1.260274,-0.912214 z"
         id="path3524"
         inkscape:connector-curvature="0"
         style="fill:#ffffff" />
    </g>
  </g>
</svg>
