<?xml version="1.0" encoding="UTF-8" standalone="no"?>
<svg
   xmlns:dc="http://purl.org/dc/elements/1.1/"
   xmlns:cc="http://creativecommons.org/ns#"
   xmlns:rdf="http://www.w3.org/1999/02/22-rdf-syntax-ns#"
   xmlns:svg="http://www.w3.org/2000/svg"
   xmlns="http://www.w3.org/2000/svg"
   xmlns:sodipodi="http://sodipodi.sourceforge.net/DTD/sodipodi-0.dtd"
   xmlns:inkscape="http://www.inkscape.org/namespaces/inkscape"
   height="60"
   version="1.1"
   viewBox="0 0 60 60"
   width="60"
   id="svg3380"
   inkscape:version="0.91 r13725"
   sodipodi:docname="icon-linkedin.svg">
  <metadata
     id="metadata3393">
    <rdf:RDF>
      <cc:Work
         rdf:about="">
        <dc:format>image/svg+xml</dc:format>
        <dc:type
           rdf:resource="http://purl.org/dc/dcmitype/StillImage" />
        <dc:title></dc:title>
      </cc:Work>
    </rdf:RDF>
  </metadata>
  <sodipodi:namedview
     pagecolor="#ffffff"
     bordercolor="#666666"
     borderopacity="1"
     objecttolerance="10"
     gridtolerance="10"
     guidetolerance="10"
     inkscape:pageopacity="0"
     inkscape:pageshadow="2"
     inkscape:window-width="1406"
     inkscape:window-height="893"
     id="namedview3391"
     showgrid="false"
     fit-margin-top="0"
     fit-margin-left="0"
     fit-margin-right="0"
     fit-margin-bottom="0"
     inkscape:zoom="16.483333"
     inkscape:cx="30"
     inkscape:cy="30"
     inkscape:window-x="0"
     inkscape:window-y="0"
     inkscape:window-maximized="0"
     inkscape:current-layer="svg3380" />
  <defs
     id="defs3384" />
  <g
     id="black"
     style="fill:none;fill-rule:evenodd;stroke:none;stroke-width:1">
    <g
       id="linkedin">
      <path
         d="M 30,60 C 46.568543,60 60,46.568543 60,30 60,13.431457 46.568543,0 30,0 13.431457,0 0,13.431457 0,30 0,46.568543 13.431457,60 30,60 Z"
         id="Linkedin"
         inkscape:connector-curvature="0" />
      <path
         d="m 21.883075,43.823151 0,-18.298812 -5.655705,0 0,18.298812 5.655705,0 z m 0,-24.784937 c -0.03369,-1.637554 -1.125059,-2.884368 -2.898021,-2.884368 -1.773422,0 -2.932169,1.246814 -2.932169,2.884368 0,1.601988 1.125059,2.884863 2.864333,2.884863 l 0.03369,0 c 1.80711,0 2.932169,-1.282875 2.932169,-2.884863 z m 9.226967,24.784938 0,-10.425779 c 0,-0.557972 0.04033,-1.115943 0.204405,-1.513705 0.448587,-1.11539 1.469509,-2.270004 3.183752,-2.270004 2.245697,0 3.654079,1.274495 3.654079,3.783709 l 0,10.425779 5.693876,0 0,-10.704765 c 0,-5.734399 -3.061109,-8.402718 -7.144244,-8.402718 -3.347829,0 -4.817338,1.87169 -5.633302,3.145633 l 0.04088,-2.44739 -5.684027,0 c 0.08176,1.751809 0,18.40924 0,18.40924 l 5.68458,0 z"
         id="path3389"
         inkscape:connector-curvature="0"
         style="fill:#ffffff" />
    </g>
  </g>
</svg>
