<?xml version="1.0" encoding="UTF-8" standalone="no"?>
<svg
   xmlns:dc="http://purl.org/dc/elements/1.1/"
   xmlns:cc="http://creativecommons.org/ns#"
   xmlns:rdf="http://www.w3.org/1999/02/22-rdf-syntax-ns#"
   xmlns:svg="http://www.w3.org/2000/svg"
   xmlns="http://www.w3.org/2000/svg"
   xmlns:sodipodi="http://sodipodi.sourceforge.net/DTD/sodipodi-0.dtd"
   xmlns:inkscape="http://www.inkscape.org/namespaces/inkscape"
   sodipodi:docname="logo-futura.inline.svg"
   inkscape:version="1.0rc1 (09960d6, 2020-04-09)"
   id="svg8"
   version="1.1"
   viewBox="0 0 92.977272 13.81621"
   height="13.81621mm"
   width="92.977272mm">
  <defs
     id="defs2">
    <rect
       id="rect835"
       height="19.390179"
       width="97.858032"
       y="34.017857"
       x="13.607143" />
  </defs>
  <sodipodi:namedview
     inkscape:window-maximized="0"
     inkscape:window-y="230"
     inkscape:window-x="1732"
     inkscape:window-height="855"
     inkscape:window-width="1851"
     fit-margin-bottom="0"
     fit-margin-right="0"
     fit-margin-left="0"
     fit-margin-top="0"
     showgrid="false"
     inkscape:document-rotation="0"
     inkscape:current-layer="layer1"
     inkscape:document-units="mm"
     inkscape:cy="-175.59562"
     inkscape:cx="129.42794"
     inkscape:zoom="1"
     inkscape:pageshadow="2"
     inkscape:pageopacity="0.0"
     borderopacity="1.0"
     bordercolor="#666666"
     pagecolor="#ffffff"
     id="base" />
  <metadata
     id="metadata5">
    <rdf:RDF>
      <cc:Work
         rdf:about="">
        <dc:format>image/svg+xml</dc:format>
        <dc:type
           rdf:resource="http://purl.org/dc/dcmitype/StillImage" />
        <dc:title></dc:title>
      </cc:Work>
    </rdf:RDF>
  </metadata>
  <g
     transform="translate(-14.636816,-36.637958)"
     id="layer1"
     inkscape:groupmode="layer"
     inkscape:label="Layer 1">
    <g
       style="font-size:10.5833px;line-height:1.55;font-family:sans-serif;white-space:pre;shape-inside:url(#rect835)"
       id="text833"
       aria-label="Frank's Movie Log">
      <path
         inkscape:connector-curvature="0"
         id="path839"
         style="font-style:normal;font-variant:normal;font-weight:normal;font-stretch:normal;font-size:12.7px;font-family:'Futura (Light)';-inkscape-font-specification:'Futura (Light), Normal';font-variant-ligatures:normal;font-variant-caps:normal;font-variant-numeric:normal;font-variant-east-asian:normal"
         d="m 18.497046,38.110736 h -3.252515 v 3.478857 h 3.162598 v 0.573609 h -3.162598 v 4.951635 h -0.607715 v -9.574609 h 3.86023 z" />
      <path
         inkscape:connector-curvature="0"
         id="path841"
         style="font-style:normal;font-variant:normal;font-weight:normal;font-stretch:normal;font-size:12.7px;font-family:'Futura (Light)';-inkscape-font-specification:'Futura (Light), Normal';font-variant-ligatures:normal;font-variant-caps:normal;font-variant-numeric:normal;font-variant-east-asian:normal"
         d="m 20.788379,41.248529 v 0.759643 h 0.0248 q 0.381372,-0.886767 1.271241,-0.886767 0.306958,0 0.620117,0.139526 l -0.303858,0.508496 q -0.207739,-0.114721 -0.406176,-0.114721 -0.5271,0 -0.79375,0.331762 -0.266651,0.328662 -0.341065,0.787549 -0.07131,0.455786 -0.07131,1.051099 v 0.291455 2.998266 H 20.21477 v -5.866308 z" />
      <path
         inkscape:connector-curvature="0"
         id="path843"
         style="font-style:normal;font-variant:normal;font-weight:normal;font-stretch:normal;font-size:12.7px;font-family:'Futura (Light)';-inkscape-font-specification:'Futura (Light), Normal';font-variant-ligatures:normal;font-variant-caps:normal;font-variant-numeric:normal;font-variant-east-asian:normal"
         d="m 26.012866,41.654706 q -0.496094,0 -0.914673,0.204638 -0.415479,0.201538 -0.722437,0.555005 -0.303857,0.353467 -0.471289,0.806153 -0.167431,0.452685 -0.167431,0.923974 0,0.675928 0.285254,1.26814 0.288354,0.592212 0.812353,0.945678 0.5271,0.350367 1.21543,0.350367 0.719336,0 1.246435,-0.356568 0.5271,-0.356567 0.79375,-0.958081 0.269751,-0.601513 0.269751,-1.314648 0,-0.502295 -0.167431,-0.945679 -0.164331,-0.446484 -0.47439,-0.778247 -0.310059,-0.331763 -0.744141,-0.514697 -0.430981,-0.186035 -0.961181,-0.186035 z m 2.880444,-0.406177 v 5.866308 h -0.570508 v -1.054199 h -0.0248 q -0.310059,0.542603 -0.939478,0.861963 -0.626318,0.31936 -1.296045,0.31936 -0.861963,0 -1.522388,-0.409277 -0.660424,-0.412378 -1.016992,-1.122412 -0.356567,-0.713135 -0.356567,-1.565796 0,-0.644922 0.201538,-1.199927 0.201538,-0.555004 0.576709,-0.964282 0.378271,-0.409277 0.911572,-0.632519 0.533301,-0.226343 1.181323,-0.226343 0.68523,0 1.286744,0.297656 0.604614,0.297656 0.973584,0.84336 h 0.0248 v -1.013892 z" />
      <path
         inkscape:connector-curvature="0"
         id="path845"
         style="font-style:normal;font-variant:normal;font-weight:normal;font-stretch:normal;font-size:12.7px;font-family:'Futura (Light)';-inkscape-font-specification:'Futura (Light), Normal';font-variant-ligatures:normal;font-variant-caps:normal;font-variant-numeric:normal;font-variant-east-asian:normal"
         d="m 31.42959,41.248529 v 0.914673 h 0.02481 q 0.257349,-0.489893 0.713135,-0.765845 0.458886,-0.275952 1.026294,-0.275952 0.734838,0 1.159619,0.288354 0.42478,0.288355 0.598413,0.827857 0.173633,0.536401 0.173633,1.333252 v 3.543969 H 34.55188 v -3.543969 q 0,-0.610816 -0.09302,-1.016992 -0.09302,-0.409278 -0.403077,-0.654224 -0.310058,-0.244946 -0.911572,-0.244946 -0.685229,0 -1.066601,0.368969 -0.381372,0.36587 -0.514698,0.936377 -0.133325,0.567408 -0.133325,1.258838 v 2.895947 h -0.573608 v -5.866308 z" />
      <path
         inkscape:connector-curvature="0"
         id="path847"
         style="font-style:normal;font-variant:normal;font-weight:normal;font-stretch:normal;font-size:12.7px;font-family:'Futura (Light)';-inkscape-font-specification:'Futura (Light), Normal';font-variant-ligatures:normal;font-variant-caps:normal;font-variant-numeric:normal;font-variant-east-asian:normal"
         d="m 37.655565,36.637958 v 7.097241 l 2.412256,-2.48667 h 0.73794 l -2.464966,2.53938 3.289721,3.326928 h -0.750341 l -2.90835,-2.933154 -0.31626,0.328662 v 2.604492 H 37.081957 V 36.637958 Z" />
      <path
         inkscape:connector-curvature="0"
         id="path849"
         style="font-style:normal;font-variant:normal;font-weight:normal;font-stretch:normal;font-size:12.7px;font-family:'Futura (Light)';-inkscape-font-specification:'Futura (Light), Normal';font-variant-ligatures:normal;font-variant-caps:normal;font-variant-numeric:normal;font-variant-east-asian:normal"
         d="m 42.641309,37.540228 h 0.610815 l -0.139526,3.047876 h -0.344165 z" />
      <path
         inkscape:connector-curvature="0"
         id="path851"
         style="font-style:normal;font-variant:normal;font-weight:normal;font-stretch:normal;font-size:12.7px;font-family:'Futura (Light)';-inkscape-font-specification:'Futura (Light), Normal';font-variant-ligatures:normal;font-variant-caps:normal;font-variant-numeric:normal;font-variant-east-asian:normal"
         d="m 48.302978,42.060882 -0.496093,0.254248 q -0.139527,-0.306958 -0.412378,-0.483691 -0.272852,-0.176733 -0.617017,-0.176733 -0.381372,0 -0.69143,0.272851 -0.310059,0.269751 -0.310059,0.641822 0,0.461987 0.303857,0.651123 0.303858,0.189135 1.047998,0.471289 0.747242,0.279052 1.125513,0.641821 0.378272,0.359668 0.378272,1.079004 0,0.520898 -0.251148,0.942578 -0.251147,0.42168 -0.68833,0.654224 -0.434082,0.232543 -0.95188,0.232543 -0.74104,0 -1.289844,-0.418579 -0.548803,-0.421679 -0.728637,-1.131713 l 0.558105,-0.176734 q 0.372071,1.193726 1.460376,1.193726 0.558106,0 0.939478,-0.384473 0.381372,-0.384473 0.381372,-0.936377 0,-0.489892 -0.291455,-0.725537 -0.291455,-0.235645 -0.852661,-0.430981 -0.523999,-0.189136 -0.877466,-0.372071 -0.353467,-0.182934 -0.595313,-0.489892 -0.241845,-0.310059 -0.241845,-0.762744 0,-0.644922 0.471289,-1.063501 0.471289,-0.42168 1.128613,-0.42168 0.294556,0 0.595312,0.120923 0.300757,0.120923 0.539502,0.337964 0.241846,0.21394 0.365869,0.48059 z" />
      <path
         inkscape:connector-curvature="0"
         id="path853"
         style="font-style:normal;font-variant:normal;font-weight:normal;font-stretch:normal;font-size:12.7px;font-family:'Futura (Light)';-inkscape-font-specification:'Futura (Light), Normal';font-variant-ligatures:normal;font-variant-caps:normal;font-variant-numeric:normal;font-variant-east-asian:normal"
         d="m 63.765599,47.114837 -1.64021,-7.925097 h -0.02481 L 58.761248,47.431097 55.43432,39.18974 h -0.02481 l -1.64021,7.925097 h -0.5829 l 2.055688,-9.893969 3.519165,8.712646 3.531568,-8.712646 2.055688,9.893969 z" />
      <path
         inkscape:connector-curvature="0"
         id="path855"
         style="font-style:normal;font-variant:normal;font-weight:normal;font-stretch:normal;font-size:12.7px;font-family:'Futura (Light)';-inkscape-font-specification:'Futura (Light), Normal';font-variant-ligatures:normal;font-variant-caps:normal;font-variant-numeric:normal;font-variant-east-asian:normal"
         d="m 67.911084,41.121405 q 0.644922,0 1.209228,0.232544 0.567408,0.232544 0.985987,0.648022 0.418579,0.412378 0.654223,0.973584 0.235645,0.561206 0.235645,1.206128 0,0.855762 -0.409277,1.556494 -0.409278,0.700733 -1.119312,1.103809 -0.706934,0.399975 -1.556494,0.399975 -0.827857,0 -1.528589,-0.412377 -0.700732,-0.415479 -1.11001,-1.116211 -0.409277,-0.700733 -0.409277,-1.519287 0,-0.830957 0.406177,-1.537891 0.406177,-0.706934 1.106909,-1.119312 0.700732,-0.415478 1.53479,-0.415478 z m -0.03721,0.533301 q -0.679028,0 -1.240234,0.347265 -0.561207,0.347266 -0.880567,0.933277 -0.31936,0.58601 -0.31936,1.258838 0,0.663525 0.322461,1.243334 0.322461,0.57981 0.883667,0.927076 0.561206,0.344165 1.234033,0.344165 0.700732,0 1.289844,-0.331763 0.589111,-0.331763 0.923974,-0.908472 0.337964,-0.579809 0.337964,-1.27434 0,-0.713135 -0.337964,-1.292945 -0.334863,-0.58291 -0.917773,-0.914673 -0.58291,-0.331762 -1.296045,-0.331762 z" />
      <path
         inkscape:connector-curvature="0"
         id="path857"
         style="font-style:normal;font-variant:normal;font-weight:normal;font-stretch:normal;font-size:12.7px;font-family:'Futura (Light)';-inkscape-font-specification:'Futura (Light), Normal';font-variant-ligatures:normal;font-variant-caps:normal;font-variant-numeric:normal;font-variant-east-asian:normal"
         d="m 72.050366,41.248529 2.120801,4.836914 2.083594,-4.836914 h 0.58291 l -2.678906,6.182568 -2.69441,-6.182568 z" />
      <path
         inkscape:connector-curvature="0"
         id="path859"
         style="font-style:normal;font-variant:normal;font-weight:normal;font-stretch:normal;font-size:12.7px;font-family:'Futura (Light)';-inkscape-font-specification:'Futura (Light), Normal';font-variant-ligatures:normal;font-variant-caps:normal;font-variant-numeric:normal;font-variant-east-asian:normal"
         d="m 78.673215,41.248529 v 5.866308 h -0.570508 v -5.866308 z m -0.279053,-2.477368 q 0.220142,0 0.36897,0.155029 0.151928,0.151929 0.151928,0.365869 0,0.223242 -0.151928,0.372071 -0.151929,0.148828 -0.36897,0.148828 -0.217041,0 -0.36897,-0.151929 -0.151928,-0.151929 -0.151928,-0.36897 0,-0.207739 0.148828,-0.362768 0.151928,-0.15813 0.37207,-0.15813 z" />
      <path
         inkscape:connector-curvature="0"
         id="path861"
         style="font-style:normal;font-variant:normal;font-weight:normal;font-stretch:normal;font-size:12.7px;font-family:'Futura (Light)';-inkscape-font-specification:'Futura (Light), Normal';font-variant-ligatures:normal;font-variant-caps:normal;font-variant-numeric:normal;font-variant-east-asian:normal"
         d="m 85.956491,44.231293 h -5.094263 q 0,0.74414 0.306958,1.308447 0.306958,0.564306 0.84336,0.868164 0.536401,0.300757 1.199926,0.300757 0.669727,0 1.209229,-0.362769 0.542603,-0.365869 0.861963,-0.970483 l 0.480591,0.279052 q -0.399976,0.762745 -1.082105,1.175123 -0.679028,0.412377 -1.544092,0.412377 -0.843359,0 -1.494482,-0.415478 -0.648022,-0.415479 -1.001489,-1.119312 -0.350366,-0.703833 -0.350366,-1.53789 0,-0.821655 0.356567,-1.519287 0.356567,-0.700733 1.00459,-1.113111 0.651123,-0.415478 1.48518,-0.415478 0.858863,0 1.500684,0.418579 0.641821,0.418579 0.979785,1.131714 0.337964,0.710034 0.337964,1.559595 z m -5.094263,-0.533301 h 4.523755 q -0.06821,-0.539502 -0.375171,-1.010791 -0.306958,-0.471289 -0.79375,-0.750342 -0.483691,-0.282153 -1.066601,-0.282153 -0.58291,0 -1.091406,0.279052 -0.505396,0.275953 -0.827857,0.747242 -0.31936,0.471289 -0.36897,1.016992 z" />
      <path
         inkscape:connector-curvature="0"
         id="path863"
         style="font-style:normal;font-variant:normal;font-weight:normal;font-stretch:normal;font-size:12.7px;font-family:'Futura (Light)';-inkscape-font-specification:'Futura (Light), Normal';font-variant-ligatures:normal;font-variant-caps:normal;font-variant-numeric:normal;font-variant-east-asian:normal"
         d="m 91.940622,37.540228 v 9.004102 h 2.440161 v 0.570507 h -3.047876 v -9.574609 z" />
      <path
         inkscape:connector-curvature="0"
         id="path865"
         style="font-style:normal;font-variant:normal;font-weight:normal;font-stretch:normal;font-size:12.7px;font-family:'Futura (Light)';-inkscape-font-specification:'Futura (Light), Normal';font-variant-ligatures:normal;font-variant-caps:normal;font-variant-numeric:normal;font-variant-east-asian:normal"
         d="m 97.899953,41.121405 q 0.644922,0 1.209228,0.232544 0.567407,0.232544 0.985989,0.648022 0.41858,0.412378 0.65422,0.973584 0.23565,0.561206 0.23565,1.206128 0,0.855762 -0.40928,1.556494 -0.40928,0.700733 -1.119313,1.103809 -0.706934,0.399975 -1.556494,0.399975 -0.827857,0 -1.528589,-0.412377 -0.700733,-0.415479 -1.11001,-1.116211 -0.409277,-0.700733 -0.409277,-1.519287 0,-0.830957 0.406176,-1.537891 0.406177,-0.706934 1.10691,-1.119312 0.700732,-0.415478 1.53479,-0.415478 z m -0.03721,0.533301 q -0.679029,0 -1.240235,0.347265 -0.561206,0.347266 -0.880566,0.933277 -0.31936,0.58601 -0.31936,1.258838 0,0.663525 0.32246,1.243334 0.322461,0.57981 0.883667,0.927076 0.561206,0.344165 1.234034,0.344165 0.700732,0 1.289843,-0.331763 0.589112,-0.331763 0.923974,-0.908472 0.33797,-0.579809 0.33797,-1.27434 0,-0.713135 -0.33797,-1.292945 -0.334862,-0.58291 -0.917772,-0.914673 -0.582911,-0.331762 -1.296045,-0.331762 z" />
      <path
         inkscape:connector-curvature="0"
         id="path867"
         style="font-style:normal;font-variant:normal;font-weight:normal;font-stretch:normal;font-size:12.7px;font-family:'Futura (Light)';-inkscape-font-specification:'Futura (Light), Normal';font-variant-ligatures:normal;font-variant-caps:normal;font-variant-numeric:normal;font-variant-east-asian:normal"
         d="m 104.73054,41.654706 q -0.49299,0 -0.91157,0.204638 -0.41548,0.201538 -0.72244,0.555005 -0.30385,0.353467 -0.47128,0.806153 -0.16744,0.452685 -0.16744,0.923974 0,0.675928 0.28526,1.26814 0.28835,0.592212 0.81235,0.945678 0.5271,0.350367 1.21543,0.350367 0.71934,0 1.24644,-0.356568 0.5271,-0.356567 0.79375,-0.958081 0.26975,-0.601513 0.26975,-1.314648 0,-0.672827 -0.29146,-1.227832 -0.29145,-0.558106 -0.83095,-0.877466 -0.53641,-0.31936 -1.22784,-0.31936 z m 2.88355,-0.406177 v 5.587256 q 0,0.84646 -0.10542,1.407666 -0.10232,0.561206 -0.47749,1.082104 -0.40308,0.548804 -1.01699,0.837158 -0.61392,0.291455 -1.32085,0.291455 -0.77515,0 -1.42007,-0.294555 -0.64492,-0.294556 -1.0387,-0.865064 -0.39067,-0.570507 -0.43718,-1.354956 h 0.57051 q 0.031,0.592212 0.34726,1.041797 0.31626,0.449585 0.82476,0.694531 0.50849,0.244947 1.10381,0.244947 0.57671,0 1.0759,-0.217041 0.49919,-0.217041 0.80305,-0.657325 0.31626,-0.465087 0.41858,-0.992187 0.10232,-0.5271 0.10232,-1.230933 v -0.725537 h -0.0248 q -0.39068,0.523999 -1.00769,0.834058 -0.61702,0.310058 -1.28055,0.310058 -0.82785,0 -1.47898,-0.421679 -0.64802,-0.42168 -1.00769,-1.128613 -0.35656,-0.710035 -0.35656,-1.522388 0,-0.834058 0.37207,-1.53169 0.37207,-0.700732 1.03869,-1.106909 0.66973,-0.409277 1.50999,-0.409277 1.35805,0 2.21072,1.141016 h 0.0248 v -1.013892 z" />
    </g>
  </g>
</svg>
